<?xml version="1.0" encoding="UTF-8" standalone="no"?>
<!-- Created with Inkscape (http://www.inkscape.org/) -->

<svg
   xmlns:dc="http://purl.org/dc/elements/1.1/"
   xmlns:cc="http://creativecommons.org/ns#"
   xmlns:rdf="http://www.w3.org/1999/02/22-rdf-syntax-ns#"
   xmlns:svg="http://www.w3.org/2000/svg"
   xmlns="http://www.w3.org/2000/svg"
   xmlns:sodipodi="http://sodipodi.sourceforge.net/DTD/sodipodi-0.dtd"
   xmlns:inkscape="http://www.inkscape.org/namespaces/inkscape"
   width="128"
   height="128"
   viewBox="0 0 128 128"
   id="svg2"
   version="1.1"
   inkscape:version="0.91 r13725"
   sodipodi:docname="Black hole.svg">
  <defs
     id="defs4" />
  <sodipodi:namedview
     id="base"
     pagecolor="#ffffff"
     bordercolor="#666666"
     borderopacity="1.0"
     inkscape:pageopacity="0.0"
     inkscape:pageshadow="2"
     inkscape:zoom="1.979899"
     inkscape:cx="34.350798"
     inkscape:cy="29.669733"
     inkscape:document-units="px"
     inkscape:current-layer="layer1"
     showgrid="false"
     borderlayer="true"
     units="px"
     inkscape:window-width="1366"
     inkscape:window-height="705"
     inkscape:window-x="-8"
     inkscape:window-y="-8"
     inkscape:window-maximized="1" />
  <metadata
     id="metadata7">
    <rdf:RDF>
      <cc:Work
         rdf:about="">
        <dc:format>image/svg+xml</dc:format>
        <dc:type
           rdf:resource="http://purl.org/dc/dcmitype/StillImage" />
        <dc:title></dc:title>
      </cc:Work>
    </rdf:RDF>
  </metadata>
  <g
     inkscape:label="Calque 1"
     inkscape:groupmode="layer"
     id="layer1"
     transform="translate(0,-924.3622)">
    <path
       sodipodi:type="spiral"
       style="fill:none;fill-rule:evenodd;stroke:#000000;stroke-width:29.69522285;stroke-linecap:round;stroke-linejoin:miter;stroke-miterlimit:4;stroke-dasharray:none;stroke-opacity:1"
       id="path4136"
       sodipodi:cx="171.42857"
       sodipodi:cy="843.79077"
       sodipodi:expansion="1"
       sodipodi:revolution="3"
       sodipodi:radius="223.14999"
       sodipodi:argument="-19.544294"
       sodipodi:t0="0"
       d="m 171.42857,843.79077 c 8.59516,-7.16263 13.89563,8.05231 11.90477,14.28571 -5.39513,16.89215 -27.72953,17.65611 -40.47619,9.52382 -22.80079,-14.54677 -22.68305,-46.92827 -7.14287,-66.66667 22.80584,-28.96689 66.39727,-27.88614 92.85714,-4.76192 35.26686,30.82096 33.16593,85.96349 2.38098,119.04762 -38.73972,41.63301 -105.57637,38.4857 -145.238102,3e-5 C 37.678626,868.60805 41.885599,790.00378 88.095223,743.79078 142.55167,689.33037 232.96645,694.6045 285.71427,748.55266 346.61373,810.83794 340.26789,913.0905 278.57145,972.36218 208.46804,1039.7104 94.359298,1032.2899 28.571448,962.83842 -45.232578,884.92432 -36.735355,758.94633 40.476166,686.64793 126.19559,606.38301 264.0524,615.95837 342.85712,700.9336"
       transform="matrix(0.3239576,0,0,0.30588647,12.06849,736.07915)" />
  </g>
</svg>
